<svg width="620" height="420" viewBox="0 0 620 420" fill="none" xmlns="http://www.w3.org/2000/svg" role="img" aria-labelledby="bankTitle bankDesc">
  <title id="bankTitle">Business banking workspace</title>
  <desc id="bankDesc">Abstract cards representing banking balances, payouts, and payroll.</desc>
  <rect width="620" height="420" rx="32" fill="#071044"/>
  <rect x="64" y="62" width="246" height="144" rx="20" fill="#2B84EA"/>
  <rect x="94" y="96" width="110" height="14" rx="7" fill="white"/>
  <rect x="94" y="130" width="164" height="12" rx="6" fill="#BDE3FF"/>
  <rect x="94" y="161" width="72" height="22" rx="11" fill="#61CEA6"/>
  <rect x="348" y="62" width="208" height="296" rx="20" fill="white"/>
  <rect x="385" y="103" width="118" height="12" rx="6" fill="#344A6C"/>
  <rect x="385" y="143" width="132" height="10" rx="5" fill="#CAD4E3"/>
  <rect x="385" y="181" width="132" height="10" rx="5" fill="#CAD4E3"/>
  <rect x="385" y="219" width="132" height="10" rx="5" fill="#CAD4E3"/>
  <rect x="385" y="272" width="84" height="36" rx="18" fill="#2B84EA"/>
  <rect x="103" y="248" width="185" height="110" rx="18" fill="#F8FAFF"/>
  <path d="M132 318C151.5 281 174.5 296.5 190.5 278.5C213.5 252.5 231 284.5 258 259" stroke="#61CEA6" stroke-width="12" stroke-linecap="round"/>
  <circle cx="482" cy="302" r="72" fill="#61CEA6"/>
  <path d="M452 302H512M482 272V332" stroke="white" stroke-width="13" stroke-linecap="round"/>
</svg>
